<?xml version="1.0" encoding="utf-8"?>
<svg xmlns="http://www.w3.org/2000/svg" viewBox="0 0 500 500">
  <g transform="matrix(0.1, 0, 0, -0.1, 4.556227, 502.699646)" fill="#000000" stroke="none">
    <path d="M2763 4733 c-87 -58 -246 -167 -353 -242 -304 -210 -414 -287 -593 -411 l-166 -115 -1 -235 c0 -129 -3 -352 -6 -495 l-7 -260 123 -85 c68 -47 184 -128 259 -180 75 -53 207 -145 294 -205 88 -61 214 -149 280 -196 67 -47 212 -148 322 -224 110 -76 226 -157 257 -179 79 -54 89 -41 -184 -236 -389 -277 -625 -440 -639 -440 -26 0 -699 461 -699 479 0 4 62 52 138 106 197 142 555 405 571 420 11 11 -48 54 -348 254 -198 133 -365 241 -371 241 -5 0 -112 -69 -237 -153 -126 -85 -291 -196 -368 -248 l-140 -94 1 -504 0 -503 25 -19 c13 -10 67 -48 119 -84 52 -36 151 -105 220 -153 821 -575 1081 -752 1091 -746 17 10 295 201 464 319 94 65 220 152 280 194 61 42 153 106 205 143 52 37 120 84 150 106 30 21 92 65 138 97 l82 58 0 706 0 706 -97 67 c-529 362 -926 642 -931 657 -3 8 52 49 279 210 31 21 187 128 345 237 159 108 313 215 342 236 l52 39 -2 172 -3 172 -45 32 c-215 155 -667 463 -680 463 -5 0 -80 -48 -167 -107z m362 -74 c97 -67 226 -156 433 -299 l62 -44 0 -152 0 -153 -32 -24 c-30 -22 -452 -311 -825 -564 -83 -57 -159 -103 -169 -103 -33 0 -127 60 -510 322 -66 46 -182 125 -257 177 -75 51 -137 97 -137 101 0 9 116 95 324 241 82 57 205 144 275 193 69 49 242 167 383 263 l258 173 42 -27 c24 -16 92 -62 153 -104z" style="fill: rgb(5, 54, 19);"/>
    <path d="M2901 4696 c45 -42 549 -391 599 -415 22 -11 22 -9 -5 14 -61 52 -575 405 -590 405 -5 0 -6 -2 -4 -4z"/>
    <path d="M2780 4613 c0 -9 108 -89 260 -193 177 -121 424 -286 440 -294 58 -30 -240 186 -520 376 -180 122 -180 122 -180 111z"/>
    <path d="M2668 4527 c22 -26 497 -359 689 -483 49 -31 80 -47 70 -36 -17 19 -123 95 -337 241 -52 35 -145 99 -205 140 -167 115 -231 156 -217 138z"/>
    <path d="M2545 4443 c54 -52 776 -543 799 -543 15 0 4 8 -162 122 -463 317 -674 456 -637 421z"/>
    <path d="M2426 4351 c38 -41 781 -537 790 -528 4 3 -437 309 -641 444 -93 62 -168 104 -149 84z"/>
    <path d="M2360 4233 c140 -107 718 -498 726 -490 2 2 -33 30 -78 62 -46 32 -119 84 -163 115 -146 104 -513 350 -532 356 -10 4 11 -15 47 -43z"/>
    <path d="M2261 4142 c90 -67 605 -427 682 -476 16 -9 31 -15 33 -13 8 7 -210 163 -576 411 -188 128 -256 166 -139 78z"/>
    <path d="M2071 4106 c26 -24 667 -468 749 -519 27 -16 32 -17 21 -4 -24 30 -746 527 -767 527 -4 0 -5 -2 -3 -4z"/>
    <path d="M1955 4023 c33 -31 262 -192 605 -424 172 -117 180 -122 180 -116 0 7 -190 146 -345 253 -263 183 -477 322 -440 287z"/>
    <path d="M1830 3936 c34 -32 705 -483 760 -511 53 -26 28 -7 -120 97 -155 108 -167 116 -434 295 -176 118 -250 161 -206 119z"/>
  </g>
</svg>